<svg width="26" height="25" viewBox="0 0 26 25" fill="none" xmlns="http://www.w3.org/2000/svg">
<circle cx="13" cy="8.66675" r="5.75" stroke="#334155" stroke-width="1.5"/>
<path d="M13 5.41675V11.9167" stroke="#334155" stroke-width="1.5"/>
<path d="M16.25 8.66675H9.75" stroke="#334155" stroke-width="1.5"/>
<path d="M22.75 15.1665H19.487C18.9631 15.1665 18.7011 15.1665 18.48 15.2848C18.2589 15.4032 18.1136 15.6211 17.8229 16.0571L16.8437 17.5259C16.5531 17.9619 16.4078 18.1799 16.1867 18.2982C15.9656 18.4165 15.7036 18.4165 15.1796 18.4165H10.8204C10.2964 18.4165 10.0344 18.4165 9.81333 18.2982C9.59223 18.1799 9.44691 17.9619 9.15627 17.5259L8.17707 16.0571C7.88642 15.6211 7.7411 15.4032 7.52001 15.2848C7.29891 15.1665 7.03693 15.1665 6.51297 15.1665H3.25" stroke="#334155" stroke-width="1.5"/>
<path d="M7.58333 10.8333H6.91421C6.649 10.8333 6.39464 10.9386 6.20711 11.1261L3.54289 13.7904C3.35536 13.9779 3.25 14.2322 3.25 14.4975V20.7499C3.25 21.8545 4.14543 22.7499 5.25 22.7499H20.75C21.8546 22.7499 22.75 21.8545 22.75 20.7499V14.4975C22.75 14.2322 22.6446 13.9779 22.4571 13.7904L19.7929 11.1261C19.6054 10.9386 19.351 10.8333 19.0858 10.8333H18.4167" stroke="#334155" stroke-width="1.5" stroke-linecap="round"/>
</svg>
