<svg width="25" height="24" viewBox="0 0 25 24" fill="none" xmlns="http://www.w3.org/2000/svg">
<g id="coin">
<path id="Vector" d="M15.9666 8.66667C15.7653 8.31751 15.4729 8.02967 15.1206 7.83395C14.7683 7.63823 14.3694 7.542 13.9666 7.55556H11.7444C11.155 7.55556 10.5898 7.78968 10.173 8.20643C9.75626 8.62318 9.52214 9.18841 9.52214 9.77778C9.52214 10.3671 9.75626 10.9324 10.173 11.3491C10.5898 11.7659 11.155 12 11.7444 12H13.9666C14.556 12 15.1212 12.2341 15.5379 12.6509C15.9547 13.0676 16.1888 13.6329 16.1888 14.2222C16.1888 14.8116 15.9547 15.3768 15.5379 15.7936C15.1212 16.2103 14.556 16.4444 13.9666 16.4444H11.7444C11.3416 16.458 10.9427 16.3618 10.5904 16.1661C10.2381 15.9703 9.94564 15.6825 9.74436 15.3333M12.8555 6.44444V17.5556M2.85547 12C2.85547 13.3132 3.11413 14.6136 3.61667 15.8268C4.11922 17.0401 4.85581 18.1425 5.7844 19.0711C6.71299 19.9997 7.81538 20.7363 9.02863 21.2388C10.2419 21.7413 11.5423 22 12.8555 22C14.1687 22 15.469 21.7413 16.6823 21.2388C17.8956 20.7363 18.998 19.9997 19.9265 19.0711C20.8551 18.1425 21.5917 17.0401 22.0943 15.8268C22.5968 14.6136 22.8555 13.3132 22.8555 12C22.8555 10.6868 22.5968 9.38642 22.0943 8.17317C21.5917 6.95991 20.8551 5.85752 19.9265 4.92893C18.998 4.00035 17.8956 3.26375 16.6823 2.7612C15.469 2.25866 14.1687 2 12.8555 2C11.5423 2 10.2419 2.25866 9.02863 2.7612C7.81538 3.26375 6.71299 4.00035 5.7844 4.92893C4.85581 5.85752 4.11922 6.95991 3.61667 8.17317C3.11413 9.38642 2.85547 10.6868 2.85547 12Z" stroke="#334155" stroke-width="1.5" stroke-linecap="round" stroke-linejoin="round"/>
</g>
</svg>
