<svg width="20" height="20" viewBox="0 0 20 20" fill="none" xmlns="http://www.w3.org/2000/svg">
<path d="M15.8332 8.95832H14.1665C12.1498 8.95832 11.0415 7.84999 11.0415 5.83332V4.16666C11.0415 2.14999 12.1498 1.04166 14.1665 1.04166H15.8332C17.8498 1.04166 18.9582 2.14999 18.9582 4.16666V5.83332C18.9582 7.84999 17.8498 8.95832 15.8332 8.95832ZM14.1665 2.29166C12.8498 2.29166 12.2915 2.84999 12.2915 4.16666V5.83332C12.2915 7.14999 12.8498 7.70832 14.1665 7.70832H15.8332C17.1498 7.70832 17.7082 7.14999 17.7082 5.83332V4.16666C17.7082 2.84999 17.1498 2.29166 15.8332 2.29166H14.1665Z" fill="#475569"/>
<path d="M5.83317 18.9583H4.1665C2.14984 18.9583 1.0415 17.85 1.0415 15.8333V14.1667C1.0415 12.15 2.14984 11.0417 4.1665 11.0417H5.83317C7.84984 11.0417 8.95817 12.15 8.95817 14.1667V15.8333C8.95817 17.85 7.84984 18.9583 5.83317 18.9583ZM4.1665 12.2917C2.84984 12.2917 2.2915 12.85 2.2915 14.1667V15.8333C2.2915 17.15 2.84984 17.7083 4.1665 17.7083H5.83317C7.14984 17.7083 7.70817 17.15 7.70817 15.8333V14.1667C7.70817 12.85 7.14984 12.2917 5.83317 12.2917H4.1665Z" fill="#475569"/>
<path d="M4.99984 8.95832C2.8165 8.95832 1.0415 7.18332 1.0415 4.99999C1.0415 2.81666 2.8165 1.04166 4.99984 1.04166C7.18317 1.04166 8.95817 2.81666 8.95817 4.99999C8.95817 7.18332 7.18317 8.95832 4.99984 8.95832ZM4.99984 2.29166C3.50817 2.29166 2.2915 3.50832 2.2915 4.99999C2.2915 6.49166 3.50817 7.70832 4.99984 7.70832C6.4915 7.70832 7.70817 6.49166 7.70817 4.99999C7.70817 3.50832 6.4915 2.29166 4.99984 2.29166Z" fill="#475569"/>
<path d="M14.9998 18.9583C12.8165 18.9583 11.0415 17.1833 11.0415 15C11.0415 12.8167 12.8165 11.0417 14.9998 11.0417C17.1832 11.0417 18.9582 12.8167 18.9582 15C18.9582 17.1833 17.1832 18.9583 14.9998 18.9583ZM14.9998 12.2917C13.5082 12.2917 12.2915 13.5083 12.2915 15C12.2915 16.4917 13.5082 17.7083 14.9998 17.7083C16.4915 17.7083 17.7082 16.4917 17.7082 15C17.7082 13.5083 16.4915 12.2917 14.9998 12.2917Z" fill="#475569"/>
</svg>
