<svg width="80" height="80" viewBox="0 0 80 80" fill="none" xmlns="http://www.w3.org/2000/svg">
<g id="false-svgrepo-com 1">
<g id="Vector">
<path d="M39.9231 3C19.4615 3 3 19.4615 3 39.9231C3 60.3846 19.4615 76.8462 39.9231 76.8462C60.3846 76.8462 76.8462 60.3846 76.8462 39.9231C76.8462 19.4615 60.3846 3 39.9231 3Z" fill="#C93B32"/>
<path d="M39.9529 47.1833L29.4612 57.9231C28.5382 58.8462 26.9997 58.8462 26.0766 57.9231L22.692 54.6538C21.7689 53.7308 21.7689 52.1923 22.692 51.2692L33.2994 40.3077L22.692 29.3462C21.7689 28.4232 21.7689 26.8847 22.692 25.9616L26.0766 22.6924C26.9997 21.7693 28.5382 21.7693 29.4612 22.6924L39.9529 33.4321L50.3458 22.6923C51.2689 21.7692 52.8074 21.7692 53.7305 22.6923L57.1151 26.0769C58.192 27 58.192 28.5385 57.1151 29.6154L46.6697 40.3077L57.1151 51.0001C58.192 52.077 58.192 53.6155 57.1151 54.5386L53.7305 57.9232C52.8074 58.8462 51.2689 58.8462 50.3458 57.9232L39.9529 47.1833Z" fill="white"/>
</g>
</g>
</svg>
