<svg width="11" height="12" viewBox="0 0 11 12" fill="none" xmlns="http://www.w3.org/2000/svg">
<path d="M8 1.50015C8.13132 1.36883 8.28722 1.26466 8.4588 1.19359C8.63038 1.12252 8.81428 1.08594 9 1.08594C9.18572 1.08594 9.36962 1.12252 9.5412 1.19359C9.71278 1.26466 9.86868 1.36883 10 1.50015C10.1313 1.63147 10.2355 1.78737 10.3066 1.95896C10.3776 2.13054 10.4142 2.31443 10.4142 2.50015C10.4142 2.68587 10.3776 2.86977 10.3066 3.04135C10.2355 3.21293 10.1313 3.36883 10 3.50015L3.25 10.2502L0.5 11.0002L1.25 8.25015L8 1.50015Z" stroke="#475569" stroke-width="0.84375" stroke-linecap="round" stroke-linejoin="round"/>
</svg>
