<svg width="20" height="20" viewBox="0 0 20 20" fill="none" xmlns="http://www.w3.org/2000/svg">
<g clip-path="url(#clip0_658_9581)">
<path d="M14.9507 5.05006C13.5261 3.96423 11.7916 3.36267 10.0007 3.33339C4.16732 3.33339 0.833984 10.0001 0.833984 10.0001C1.87056 11.9318 3.30826 13.6196 5.05065 14.9501M8.25065 16.4667C8.82426 16.601 9.41154 16.6681 10.0007 16.6667C15.834 16.6667 19.1673 10.0001 19.1673 10.0001C18.6615 9.05372 18.0582 8.16278 17.3673 7.34173" stroke="#475569" stroke-width="1.5" stroke-linecap="round" stroke-linejoin="round"/>
<path d="M14.9507 14.9499C13.5261 16.0358 11.7916 16.6373 10.0007 16.6666C4.16732 16.6666 0.833984 9.99994 0.833984 9.99994C1.87056 8.06819 3.30826 6.38045 5.05065 5.04994M8.25065 3.53327C8.82426 3.39901 9.41154 3.33189 10.0007 3.33327C15.834 3.33327 19.1673 9.99994 19.1673 9.99994C18.6615 10.9463 18.0582 11.8372 17.3673 12.6583" stroke="#475569" stroke-width="1.5" stroke-linecap="round" stroke-linejoin="round"/>
<path d="M12.5 10C12.5 11.3807 11.3807 12.5 10 12.5C8.61929 12.5 7.5 11.3807 7.5 10C7.5 8.61929 8.61929 7.5 10 7.5C11.3807 7.5 12.5 8.61929 12.5 10Z" stroke="#475569" stroke-width="1.5"/>
</g>
<defs>
<clipPath id="clip0_658_9581">
<rect width="20" height="20" fill="white" transform="matrix(1 0 0 -1 0 20)"/>
</clipPath>
</defs>
</svg>
