<svg width="9" height="9" viewBox="0 0 9 9" fill="none" xmlns="http://www.w3.org/2000/svg">
<g id="fi:image">
<path id="Vector" d="M7.125 1.125H1.875C1.46079 1.125 1.125 1.46079 1.125 1.875V7.125C1.125 7.53921 1.46079 7.875 1.875 7.875H7.125C7.53921 7.875 7.875 7.53921 7.875 7.125V1.875C7.875 1.46079 7.53921 1.125 7.125 1.125Z" stroke="white" stroke-width="0.5625" stroke-linecap="round" stroke-linejoin="round"/>
<path id="Vector_2" d="M7.875 5.625L6 3.75L1.875 7.875" stroke="white" stroke-width="0.5625" stroke-linecap="round" stroke-linejoin="round"/>
<path id="Vector_3" d="M3.1875 3.75C3.49816 3.75 3.75 3.49816 3.75 3.1875C3.75 2.87684 3.49816 2.625 3.1875 2.625C2.87684 2.625 2.625 2.87684 2.625 3.1875C2.625 3.49816 2.87684 3.75 3.1875 3.75Z" stroke="white" stroke-width="0.5625" stroke-linecap="round" stroke-linejoin="round"/>
</g>
</svg>
