<svg width="18" height="18" viewBox="0 0 18 18" fill="none" xmlns="http://www.w3.org/2000/svg">
<path d="M16.3834 5.97501L10.6084 1.35834C9.71672 0.641673 8.27506 0.641673 7.39172 1.35001L1.61672 5.97501C0.966725 6.49167 0.550058 7.58334 0.691725 8.40001L1.80006 15.0333C2.00006 16.2167 3.13339 17.175 4.33339 17.175H13.6667C14.8584 17.175 16.0001 16.2083 16.2001 15.0333L17.3084 8.40001C17.4417 7.58334 17.0251 6.49167 16.3834 5.97501ZM9.00006 11.9167C7.85006 11.9167 6.91672 10.9833 6.91672 9.83334C6.91672 8.68334 7.85006 7.75001 9.00006 7.75001C10.1501 7.75001 11.0834 8.68334 11.0834 9.83334C11.0834 10.9833 10.1501 11.9167 9.00006 11.9167Z" fill="#475569"/>
</svg>
