<svg width="26" height="26" viewBox="0 0 26 26" fill="none" xmlns="http://www.w3.org/2000/svg">
<g id="money-transfer-svgrepo-com 1">
<path id="Vector" d="M21.2289 9.61455V16.651C21.2285 16.8233 21.1599 16.9884 21.0381 17.1102C20.9163 17.232 20.7512 17.3006 20.5789 17.301H5.41953C5.24725 17.3006 5.08213 17.232 4.96031 17.1102C4.83849 16.9884 4.76989 16.8233 4.76953 16.651V9.61455C4.76989 9.44227 4.83849 9.27715 4.96031 9.15533C5.08213 9.03351 5.24725 8.96491 5.41953 8.96455H20.5789C20.7512 8.96491 20.9163 9.03351 21.0381 9.15533C21.1599 9.27715 21.2285 9.44227 21.2289 9.61455ZM16.3272 13.1314C16.3259 12.3092 16.0193 11.5167 15.4668 10.9078C14.9143 10.2989 14.1553 9.91681 13.3371 9.83578C12.5188 9.75475 11.6997 9.9805 11.0385 10.4692C10.3773 10.958 9.92115 11.6749 9.75859 12.4809C9.59603 13.2869 9.73861 14.1245 10.1587 14.8313C10.5788 15.5382 11.2464 16.0638 12.032 16.3062C12.8177 16.5487 13.6654 16.4907 14.4108 16.1435C15.1561 15.7964 15.7459 15.1847 16.0658 14.4273C16.2386 14.0176 16.3271 13.5774 16.3258 13.1328L16.3272 13.1314ZM16.0056 6.86266C15.8635 7.00463 15.6708 7.08438 15.4699 7.08438C15.269 7.08438 15.0763 7.00463 14.9342 6.86266L13.7573 5.68582V7.05424C13.7573 7.2553 13.6774 7.44813 13.5353 7.5903C13.3931 7.73247 13.2003 7.81234 12.9992 7.81234C12.7982 7.81234 12.6053 7.73247 12.4632 7.5903C12.321 7.44813 12.2411 7.2553 12.2411 7.05424V5.68582L11.0643 6.86266C10.922 7.00474 10.7291 7.0845 10.528 7.08437C10.327 7.08424 10.1342 7.00424 9.99211 6.86197C9.85002 6.71971 9.77027 6.52682 9.7704 6.32575C9.77053 6.12468 9.85053 5.9319 9.99279 5.78982L12.4628 3.31982C12.5332 3.24931 12.6168 3.19338 12.7089 3.15522C12.8009 3.11705 12.8996 3.09741 12.9992 3.09741C13.0989 3.09741 13.1975 3.11705 13.2896 3.15522C13.3816 3.19338 13.4652 3.24931 13.5356 3.31982L16.0056 5.78845C16.0761 5.85886 16.1321 5.94248 16.1702 6.03452C16.2084 6.12656 16.228 6.22523 16.228 6.32487C16.228 6.42451 16.2084 6.52317 16.1702 6.61522C16.1321 6.70726 16.0761 6.79088 16.0056 6.86129V6.86266ZM16.0056 20.4743L13.5356 22.9457C13.4652 23.0162 13.3816 23.0721 13.2896 23.1103C13.1975 23.1485 13.0989 23.1681 12.9992 23.1681C12.8996 23.1681 12.8009 23.1485 12.7089 23.1103C12.6168 23.0721 12.5332 23.0162 12.4628 22.9457L9.99279 20.4743C9.85877 20.3307 9.78577 20.1405 9.78919 19.9441C9.79261 19.7476 9.87218 19.5601 10.0111 19.4212C10.1501 19.2823 10.3375 19.2027 10.534 19.1993C10.7305 19.1958 10.9206 19.2688 11.0643 19.4029L12.2411 20.5797V19.2113C12.2411 19.0102 12.321 18.8174 12.4632 18.6752C12.6053 18.5331 12.7982 18.4532 12.9992 18.4532C13.2003 18.4532 13.3931 18.5331 13.5353 18.6752C13.6774 18.8174 13.7573 19.0102 13.7573 19.2113V20.5797L14.9342 19.4029C15.0036 19.3284 15.0873 19.2688 15.1803 19.2274C15.2732 19.186 15.3736 19.1637 15.4754 19.162C15.5771 19.1602 15.6782 19.1789 15.7726 19.2171C15.8669 19.2552 15.9526 19.3119 16.0246 19.3839C16.0966 19.4559 16.1533 19.5416 16.1914 19.6359C16.2296 19.7303 16.2483 19.8314 16.2465 19.9331C16.2448 20.0349 16.2225 20.1353 16.1811 20.2282C16.1397 20.3212 16.0801 20.4049 16.0056 20.4743ZM14.5688 14.0031C14.568 14.2019 14.515 14.3971 14.4151 14.569C14.3152 14.741 14.1719 14.8837 13.9995 14.9829C13.8259 15.0932 13.6348 15.1733 13.4344 15.2196V15.5836C13.4282 15.6943 13.3798 15.7983 13.2993 15.8745C13.2187 15.9506 13.1121 15.993 13.0013 15.993C12.8904 15.993 12.7838 15.9506 12.7033 15.8745C12.6227 15.7983 12.5744 15.6943 12.5682 15.5836V15.2251C12.4425 15.1987 12.3197 15.1602 12.2014 15.1101C12.0095 15.0309 11.8396 14.9065 11.7061 14.7475C11.6344 14.6601 11.5996 14.5482 11.6092 14.4356C11.6188 14.323 11.6719 14.2185 11.7574 14.1445C11.8428 14.0705 11.9537 14.0327 12.0666 14.0393C12.1794 14.0459 12.2852 14.0962 12.3615 14.1796C12.4046 14.2337 12.46 14.2769 12.523 14.3055C12.5943 14.3366 12.6686 14.3605 12.7447 14.3767C12.8242 14.3924 12.9046 14.4025 12.9855 14.4068C13.177 14.4072 13.3649 14.3551 13.5288 14.2562C13.7026 14.144 13.7026 14.0482 13.7026 14.0031C13.7018 13.9327 13.6761 13.8648 13.6301 13.8115C13.5785 13.7533 13.5174 13.7043 13.4494 13.6664C13.3788 13.6304 13.3039 13.6038 13.2264 13.5871C13.1544 13.5716 13.081 13.5639 13.0074 13.5638C12.8823 13.5647 12.7574 13.555 12.6338 13.5351C12.4664 13.5073 12.3041 13.4547 12.1522 13.3791C11.9749 13.2904 11.8186 13.1649 11.6937 13.011C11.5211 12.8021 11.4254 12.5403 11.4228 12.2693C11.4268 12.0636 11.4836 11.8624 11.5879 11.6851C11.6921 11.5077 11.8403 11.3602 12.0181 11.2567C12.1876 11.1514 12.3735 11.0751 12.5682 11.0309V10.6819C12.5744 10.5713 12.6227 10.4672 12.7033 10.391C12.7838 10.3149 12.8904 10.2725 13.0013 10.2725C13.1121 10.2725 13.2187 10.3149 13.2993 10.391C13.3798 10.4672 13.4282 10.5713 13.4344 10.6819V11.0432C13.5628 11.0745 13.6879 11.118 13.808 11.1732C13.9697 11.2458 14.117 11.3469 14.2431 11.4715C14.3246 11.5528 14.3704 11.6631 14.3706 11.7782C14.3707 11.8933 14.3251 12.0038 14.2438 12.0852C14.1625 12.1667 14.0522 12.2126 13.9371 12.2127C13.822 12.2128 13.7115 12.1672 13.6301 12.0859C13.5784 12.0348 13.5182 11.9931 13.4522 11.9628C13.3788 11.9288 13.3023 11.9022 13.2236 11.8834L13.2004 11.8779C13.1389 11.8623 13.0762 11.8518 13.0129 11.8464C12.826 11.8457 12.6422 11.8948 12.4806 11.9888C12.4269 12.0147 12.381 12.0542 12.3473 12.1034C12.3137 12.1527 12.2936 12.2099 12.289 12.2693C12.293 12.3413 12.3204 12.41 12.367 12.465C12.4143 12.5225 12.473 12.5695 12.5394 12.6032C12.6142 12.6401 12.6939 12.6659 12.7762 12.6798C12.8526 12.6922 12.93 12.6982 13.0074 12.6976C13.1431 12.697 13.2784 12.7107 13.4111 12.7387C13.5649 12.7723 13.7135 12.8261 13.8531 12.8988C14.0156 12.9862 14.1611 13.1021 14.2828 13.2409C14.4675 13.4519 14.5696 13.7226 14.5702 14.0031H14.5688Z" fill="#334155"/>
</g>
</svg>
