<svg width="35" height="36" viewBox="0 0 35 36" fill="none" xmlns="http://www.w3.org/2000/svg">
<g id="notification-solid-svgrepo-com 1">
<g clip-path="url(#clip0_478_12409)">
<g id="Layer 2">
<g id="icons Q2">
<path id="Vector" d="M26.5527 20.2867L25.0594 18.7933C24.7163 18.424 24.5176 17.9437 24.4993 17.44V14.5C24.4993 10.72 21.9794 7.5 17.4993 7.5C13.0193 7.5 10.4993 10.6267 10.4993 14.5V17.7667C10.4907 18.0621 10.3746 18.3442 10.1727 18.56L8.44602 20.2867C8.27016 20.459 8.16952 20.6938 8.16602 20.94V24.3C8.16602 24.5475 8.26435 24.7849 8.43938 24.96C8.61442 25.135 8.85181 25.2333 9.09935 25.2333H14.2793C14.4092 25.9933 14.8037 26.6828 15.393 27.18C15.9822 27.6771 16.7284 27.9498 17.4993 27.9498C18.2703 27.9498 19.0165 27.6771 19.6057 27.18C20.195 26.6828 20.5895 25.9933 20.7193 25.2333H25.8993C26.1469 25.2333 26.3843 25.135 26.5593 24.96C26.7344 24.7849 26.8327 24.5475 26.8327 24.3V20.94C26.8292 20.6938 26.7285 20.459 26.5527 20.2867Z" fill="white"/>
</g>
</g>
</g>
</g>
<defs>
<clipPath id="clip0_478_12409">
<rect y="0.5" width="35" height="35" rx="10" fill="white"/>
</clipPath>
</defs>
</svg>
