<svg width="28" height="28" viewBox="0 0 28 28" fill="none" xmlns="http://www.w3.org/2000/svg">
<g id="Icon=plus, Component=Additional Icons">
<path id="Vector" d="M22.166 12.8332H15.166V5.83317C15.166 5.52375 15.0431 5.22701 14.8243 5.00821C14.6055 4.78942 14.3088 4.6665 13.9993 4.6665C13.6899 4.6665 13.3932 4.78942 13.1744 5.00821C12.9556 5.22701 12.8327 5.52375 12.8327 5.83317V12.8332H5.83268C5.52326 12.8332 5.22652 12.9561 5.00772 13.1749C4.78893 13.3937 4.66602 13.6904 4.66602 13.9998C4.66602 14.3093 4.78893 14.606 5.00772 14.8248C5.22652 15.0436 5.52326 15.1665 5.83268 15.1665H12.8327V22.1665C12.8327 22.4759 12.9556 22.7727 13.1744 22.9915C13.3932 23.2103 13.6899 23.3332 13.9993 23.3332C14.3088 23.3332 14.6055 23.2103 14.8243 22.9915C15.0431 22.7727 15.166 22.4759 15.166 22.1665V15.1665H22.166C22.4754 15.1665 22.7722 15.0436 22.991 14.8248C23.2098 14.606 23.3327 14.3093 23.3327 13.9998C23.3327 13.6904 23.2098 13.3937 22.991 13.1749C22.7722 12.9561 22.4754 12.8332 22.166 12.8332Z" fill="#212121"/>
</g>
</svg>
