<svg width="25" height="24" viewBox="0 0 25 24" fill="none" xmlns="http://www.w3.org/2000/svg">
<g id="Full">
<path id="Vector" d="M16.9297 14H17.9297H18.9297M14.9297 14V15.5M18.9297 18H17.9297H16.9297H14.9297M17.9297 16H18.9297" stroke="#EEEEEE" stroke-width="1.5" stroke-linecap="round" stroke-linejoin="round"/>
<path id="Vector_2" d="M9.92969 14H7.92969C7.3774 14 6.92969 14.4477 6.92969 15V17C6.92969 17.5523 7.3774 18 7.92969 18H9.92969C10.482 18 10.9297 17.5523 10.9297 17V15C10.9297 14.4477 10.482 14 9.92969 14Z" stroke="#EEEEEE" stroke-width="1.5" stroke-linecap="round" stroke-linejoin="round"/>
<path id="Vector_3" d="M17.9297 6H15.9297C15.3774 6 14.9297 6.44772 14.9297 7V9C14.9297 9.55228 15.3774 10 15.9297 10H17.9297C18.482 10 18.9297 9.55228 18.9297 9V7C18.9297 6.44772 18.482 6 17.9297 6Z" stroke="#EEEEEE" stroke-width="1.5" stroke-linecap="round" stroke-linejoin="round"/>
<path id="Vector_4" d="M9.92969 6H7.92969C7.3774 6 6.92969 6.44772 6.92969 7V9C6.92969 9.55228 7.3774 10 7.92969 10H9.92969C10.482 10 10.9297 9.55228 10.9297 9V7C10.9297 6.44772 10.482 6 9.92969 6Z" stroke="#EEEEEE" stroke-width="1.5" stroke-linecap="round" stroke-linejoin="round"/>
<path id="Vector 90" d="M8.92969 3H6.92969C5.51547 3 4.80837 3 4.36903 3.43934C3.92969 3.87868 3.92969 4.58579 3.92969 6V8" stroke="#EEEEEE" stroke-width="1.5" stroke-linecap="round"/>
<path id="Vector 92" d="M8.92969 21H6.92969C5.51547 21 4.80837 21 4.36903 20.5607C3.92969 20.1213 3.92969 19.4142 3.92969 18V16" stroke="#EEEEEE" stroke-width="1.5" stroke-linecap="round"/>
<path id="Vector 91" d="M16.9297 3H18.9297C20.3439 3 21.051 3 21.4903 3.43934C21.9297 3.87868 21.9297 4.58579 21.9297 6V8" stroke="#EEEEEE" stroke-width="1.5" stroke-linecap="round"/>
<path id="Vector 93" d="M16.9297 21H18.9297C20.3439 21 21.051 21 21.4903 20.5607C21.9297 20.1213 21.9297 19.4142 21.9297 18V16" stroke="#EEEEEE" stroke-width="1.5" stroke-linecap="round"/>
</g>
</svg>
