<svg width="25" height="25" viewBox="0 0 25 25" fill="none" xmlns="http://www.w3.org/2000/svg">
<g id="vuesax/bold/scan">
<path id="Vector" d="M3.71141 10.9414C3.28141 10.9414 2.94141 10.6014 2.94141 10.1714V7.86141C2.94141 5.15141 5.15141 2.94141 7.86141 2.94141H10.1714C10.6014 2.94141 10.9414 3.28141 10.9414 3.71141C10.9414 4.14141 10.6014 4.48141 10.1714 4.48141H7.86141C5.99141 4.48141 4.48141 6.00141 4.48141 7.86141V10.1714C4.48141 10.6014 4.13141 10.9414 3.71141 10.9414Z" fill="white"/>
<path id="Vector_2" d="M22.1714 10.9414C21.7514 10.9414 21.4014 10.6014 21.4014 10.1714V7.86141C21.4014 5.99141 19.8814 4.48141 18.0214 4.48141H15.7114C15.2814 4.48141 14.9414 4.13141 14.9414 3.71141C14.9414 3.29141 15.2814 2.94141 15.7114 2.94141H18.0214C20.7314 2.94141 22.9414 5.15141 22.9414 7.86141V10.1714C22.9414 10.6014 22.6014 10.9414 22.1714 10.9414Z" fill="white"/>
<path id="Vector_3" d="M18.0213 22.9411H16.6313C16.2113 22.9411 15.8613 22.6011 15.8613 22.1711C15.8613 21.7511 16.2013 21.4011 16.6313 21.4011H18.0213C19.8913 21.4011 21.4013 19.8811 21.4013 18.0211V16.6411C21.4013 16.2211 21.7413 15.8711 22.1713 15.8711C22.5913 15.8711 22.9413 16.2111 22.9413 16.6411V18.0211C22.9413 20.7311 20.7313 22.9411 18.0213 22.9411Z" fill="white"/>
<path id="Vector_4" d="M10.1714 22.9414H7.86141C5.15141 22.9414 2.94141 20.7314 2.94141 18.0214V15.7114C2.94141 15.2814 3.28141 14.9414 3.71141 14.9414C4.14141 14.9414 4.48141 15.2814 4.48141 15.7114V18.0214C4.48141 19.8914 6.00141 21.4014 7.86141 21.4014H10.1714C10.5914 21.4014 10.9414 21.7414 10.9414 22.1714C10.9414 22.6014 10.6014 22.9414 10.1714 22.9414Z" fill="white"/>
<path id="Vector_5" d="M19.4009 12.1719H18.0409H7.84094H6.48094C6.05094 12.1719 5.71094 12.5219 5.71094 12.9419C5.71094 13.3619 6.05094 13.7119 6.48094 13.7119H7.84094H18.0409H19.4009C19.8309 13.7119 20.1709 13.3619 20.1709 12.9419C20.1709 12.5219 19.8309 12.1719 19.4009 12.1719Z" fill="white"/>
<path id="Vector_6" d="M7.8418 14.8819V15.2119C7.8418 16.8719 9.1818 18.2119 10.8418 18.2119H15.0418C16.7018 18.2119 18.0418 16.8719 18.0418 15.2119V14.8819C18.0418 14.7619 17.9518 14.6719 17.8318 14.6719H8.0518C7.9318 14.6719 7.8418 14.7619 7.8418 14.8819Z" fill="white"/>
<path id="Vector_7" d="M7.8418 11.0019V10.6719C7.8418 9.01187 9.1818 7.67188 10.8418 7.67188H15.0418C16.7018 7.67188 18.0418 9.01187 18.0418 10.6719V11.0019C18.0418 11.1219 17.9518 11.2119 17.8318 11.2119H8.0518C7.9318 11.2119 7.8418 11.1219 7.8418 11.0019Z" fill="white"/>
</g>
</svg>
