<svg width="80" height="80" viewBox="0 0 80 80" fill="none" xmlns="http://www.w3.org/2000/svg">
<g id="success-svgrepo-com 1">
<path id="Vector" d="M40.0002 3.0769C19.5387 3.0769 3.07715 19.5384 3.07715 40C3.07715 60.4615 19.5387 76.9231 40.0002 76.9231C60.4618 76.9231 76.9233 60.4615 76.9233 40C76.9233 19.5384 60.4618 3.0769 40.0002 3.0769ZM60.6156 30.7692L37.0771 54.6154C36.1541 55.5384 34.6156 55.5384 33.6925 54.6154L20.7695 41.5384C19.8464 40.6154 19.8464 39.0769 20.7695 38.1538L24.1541 34.7692C25.0771 33.8461 26.6156 33.8461 27.5387 34.7692L34.3079 41.6923C34.9233 42.3077 36.0002 42.3077 36.6156 41.6923L53.8464 23.8461C54.7695 22.9231 56.3079 22.9231 57.231 23.8461L60.6156 27.2308C61.6925 28.1538 61.6925 29.6923 60.6156 30.7692Z" fill="#32C993"/>
</g>
</svg>
