<svg width="20" height="20" viewBox="0 0 20 20" fill="none" xmlns="http://www.w3.org/2000/svg">
<g id="vuesax/outline/bag-2">
<g id="bag-2">
<path id="Vector" d="M13.75 7.19168C13.4083 7.19168 13.125 6.90835 13.125 6.56668V5.41668C13.125 4.54168 12.75 3.69168 12.1 3.10002C11.4417 2.50002 10.5917 2.22502 9.69167 2.30835C8.19167 2.45002 6.875 3.98335 6.875 5.58335V6.39168C6.875 6.73335 6.59167 7.01668 6.25 7.01668C5.90833 7.01668 5.625 6.73335 5.625 6.39168V5.57502C5.625 3.33335 7.43333 1.26668 9.575 1.05835C10.825 0.941682 12.025 1.33335 12.9417 2.17502C13.85 3.00002 14.375 4.18335 14.375 5.41668V6.56668C14.375 6.90835 14.0917 7.19168 13.75 7.19168Z" fill="#475569"/>
<path id="Vector_2" d="M12.4998 18.9583H7.49985C3.64985 18.9583 2.93318 17.1667 2.74985 15.425L2.12485 10.4333C2.03318 9.53332 1.99985 8.24166 2.87485 7.27499C3.62485 6.44166 4.86652 6.04166 6.66652 6.04166H13.3332C15.1415 6.04166 16.3832 6.44999 17.1248 7.27499C17.9915 8.24166 17.9665 9.53332 17.8748 10.4167L17.2498 15.425C17.0665 17.1667 16.3498 18.9583 12.4998 18.9583ZM6.66652 7.29166C5.25818 7.29166 4.29152 7.56666 3.79985 8.11666C3.39152 8.56666 3.25818 9.25832 3.36652 10.2917L3.99152 15.2833C4.13318 16.6167 4.49985 17.7167 7.49985 17.7167H12.4998C15.4998 17.7167 15.8665 16.625 16.0082 15.3L16.6332 10.2917C16.7415 9.27499 16.6082 8.58332 16.1998 8.12499C15.7082 7.56666 14.7415 7.29166 13.3332 7.29166H6.66652Z" fill="#475569"/>
<path id="Vector_3" d="M12.85 10.9583C12.3833 10.9583 12.0083 10.5833 12.0083 10.125C12.0083 9.66666 12.3833 9.29166 12.8416 9.29166C13.3 9.29166 13.675 9.66666 13.675 10.125C13.675 10.5833 13.3083 10.9583 12.85 10.9583Z" fill="#475569"/>
<path id="Vector_4" d="M7.01647 10.9583C6.5498 10.9583 6.1748 10.5833 6.1748 10.125C6.1748 9.66666 6.5498 9.29166 7.00814 9.29166C7.46647 9.29166 7.84147 9.66666 7.84147 10.125C7.84147 10.5833 7.47481 10.9583 7.01647 10.9583Z" fill="#475569"/>
</g>
</g>
</svg>
