<svg width="24" height="24" viewBox="0 0 24 24" fill="none" xmlns="http://www.w3.org/2000/svg">
<path d="M8 20L7.46967 20.5303L8 21.0607L8.53033 20.5303L8 20ZM10 6.75C10.4142 6.75 10.75 6.41421 10.75 6C10.75 5.58579 10.4142 5.25 10 5.25L10 6.75ZM4.46967 17.5303L7.46967 20.5303L8.53033 19.4697L5.53033 16.4697L4.46967 17.5303ZM8.53033 20.5303L11.5303 17.5303L10.4697 16.4697L7.46967 19.4697L8.53033 20.5303ZM8.75 20L8.75 8L7.25 8L7.25 20L8.75 20ZM8.75 8C8.75 7.30964 9.30964 6.75 10 6.75L10 5.25C8.48122 5.25 7.25 6.48122 7.25 8L8.75 8Z" fill="#334155"/>
<path d="M16 4L15.4697 3.46967L16 2.93934L16.5303 3.46967L16 4ZM16 17L16.75 17L16 17ZM14 19.75C13.5858 19.75 13.25 19.4142 13.25 19C13.25 18.5858 13.5858 18.25 14 18.25L14 19.75ZM12.4697 6.46967L15.4697 3.46967L16.5303 4.53033L13.5303 7.53033L12.4697 6.46967ZM16.5303 3.46967L19.5303 6.46967L18.4697 7.53033L15.4697 4.53033L16.5303 3.46967ZM16.75 4L16.75 17L15.25 17L15.25 4L16.75 4ZM16.75 17C16.75 18.5188 15.5188 19.75 14 19.75L14 18.25C14.6904 18.25 15.25 17.6904 15.25 17L16.75 17Z" fill="#334155"/>
</svg>
